<?xml version="1.0" encoding="utf-8"?>
<!-- Generator: Adobe Illustrator 28.0.0, SVG Export Plug-In . SVG Version: 6.00 Build 0)  -->
<svg version="1.1" id="Layer_1" xmlns="http://www.w3.org/2000/svg" xmlns:xlink="http://www.w3.org/1999/xlink" x="0px" y="0px"
	 viewBox="0 0 390 155.59" style="enable-background:new 0 0 390 155.59;" xml:space="preserve">
<style type="text/css">
	.st0{fill:#1B1A19;}
	.st1{fill:#1C71B9;}
	.st2{fill:#FFFFFF;}
</style>
<g>
	<g>
		<polygon class="st0" points="38.48,150.83 38.48,118.31 6.36,118.31 6.36,90.45 38.48,90.45 38.48,49.4 130.69,49.4 118,79.81 
			73.72,79.81 73.72,90.45 113.55,90.45 101.93,118.31 73.72,118.31 73.72,150.83 		"/>
		<path class="st0" d="M129.19,50.4l-11.86,28.41H72.72v12.64h39.33l-10.79,25.85H72.72v32.53H39.48v-32.53H7.36V91.45h32.12V50.4
			H129.19 M132.19,48.4h-3H39.48h-2v2v39.05H7.36h-2v2v25.85v2h2h30.12v30.53v2h2h33.24h2v-2v-30.53h26.54h1.33l0.51-1.23
			l10.79-25.85l1.16-2.77h-3H74.72v-8.64h42.61h1.33l0.51-1.23l11.86-28.41L132.19,48.4L132.19,48.4z"/>
	</g>
	<g>
		<polygon class="st1" points="36.48,148.83 36.48,116.31 4.36,116.31 4.36,88.45 36.48,88.45 36.48,47.4 128.69,47.4 116,77.81 
			71.72,77.81 71.72,88.45 111.55,88.45 99.93,116.31 71.72,116.31 71.72,148.83 		"/>
		<path class="st2" d="M127.19,48.4l-11.86,28.41H70.72v12.64h39.33l-10.79,25.85H70.72v32.53H37.48v-32.53H5.36V89.45h32.12V48.4
			H127.19 M130.19,46.4h-3H37.48h-2v2v39.05H5.36h-2v2v25.85v2h2h30.12v30.53v2h2h33.24h2v-2v-30.53h26.54h1.33l0.51-1.23
			l10.79-25.85l1.16-2.77h-3H72.72v-8.64h42.61h1.33l0.51-1.23l11.86-28.41L130.19,46.4L130.19,46.4z"/>
	</g>
</g>
<g>
	<polygon class="st1" points="384.91,54.64 384.91,52.96 384.58,53.46 383.4,53.46 383.09,52.99 383.09,54.64 380.34,54.64 
		380.34,50.12 379.5,50.12 379.5,54.64 376.76,54.64 376.76,50.12 375.07,50.12 375.07,47.4 382.68,47.4 384,49.44 385.32,47.4 
		387.64,47.4 387.64,54.64 	"/>
	<path class="st2" d="M386.64,48.4v5.23h-0.73v-4.01l-1.87,2.84h-0.1l-1.85-2.84v4.01h-0.75V48.4h0.8l1.87,2.87l1.85-2.87H386.64
		 M380.19,48.4v0.71h-1.68v4.52h-0.75v-4.52h-1.68V48.4H380.19 M388.64,46.4h-2h-0.78h-1.09l-0.59,0.92L384,47.6l-0.19-0.29
		l-0.59-0.91h-1.04h-2h-4.11h-2v2v0.71v2h1.68v2.52v2h2h0.75h0.84h2h0.75h2h1.82h0.73h2v-2V48.4V46.4L388.64,46.4z"/>
</g>
<g>
	<g>
		<polygon class="st0" points="286.38,150.83 286.38,79.53 257.25,79.53 257.25,150.83 222.01,150.83 222.01,79.53 200.22,79.53 
			187.61,49.4 373.18,49.4 373.18,79.53 321.05,79.53 321.05,86.76 369.63,86.76 369.63,112.77 321.05,112.77 321.05,121.56 
			373.89,121.56 373.89,150.83 		"/>
		<path class="st0" d="M372.18,50.4v27.27v0.85h-52.13v9.23h48.58v24.01h-48.58v10.79h52.84v27.27h-85.51V78.53h-31.13v71.31h-33.24
			V78.53h-22.13L189.12,50.4H372.18 M374.18,48.4h-2H189.12h-3l1.16,2.77l11.77,28.12l0.51,1.23h1.33h20.13v69.31v2h2h33.24h2v-2
			V80.53h27.13v69.31v2h2h85.51h2v-2v-27.27v-2h-2h-50.84v-6.79h46.58h2v-2V87.76v-2h-2h-46.58v-5.23h50.13h2v-2v-0.85V50.4V48.4
			L374.18,48.4z"/>
	</g>
	<g>
		<polygon class="st1" points="284.38,148.83 284.38,77.53 255.25,77.53 255.25,148.83 220.01,148.83 220.01,77.53 198.22,77.53 
			185.61,47.4 371.18,47.4 371.18,77.53 319.05,77.53 319.05,84.76 367.63,84.76 367.63,110.77 319.05,110.77 319.05,119.56 
			371.89,119.56 371.89,148.83 		"/>
		<path class="st2" d="M370.18,48.4v27.27v0.85h-52.13v9.23h48.58v24.01h-48.58v10.79h52.84v27.27h-85.51V76.53h-31.13v71.31h-33.24
			V76.53h-22.13L187.12,48.4H370.18 M372.18,46.4h-2H187.12h-3l1.16,2.77l11.77,28.12l0.51,1.23h1.33h20.13v69.31v2h2h33.24h2v-2
			V78.53h27.13v69.31v2h2h85.51h2v-2v-27.27v-2h-2h-50.84v-6.79h46.58h2v-2V85.76v-2h-2h-46.58v-5.23h50.13h2v-2v-0.85V48.4V46.4
			L372.18,46.4z"/>
	</g>
</g>
<g>
	<g>
		<path class="st0" d="M217.69,150.81c-12.49-2.76-25.32-4.64-38.14-5.58l-0.63-0.05l-3.01-7.66h-33.43l-2.95,7.7l-0.63,0.05
			c-12.58,0.96-25.2,2.82-37.5,5.54l-1.88,0.42L159.55,7.42l17.4,41.94l42.63,101.87L217.69,150.81z M166.9,111.95l-7.65-20.31
			l-7.65,20.31H166.9z"/>
		<path class="st0" d="M159.54,10.02l16.48,39.72l41.88,100.1c-12.46-2.75-25.24-4.64-38.28-5.6l-3.03-7.71h-34.8l-2.97,7.75
			c-12.82,0.97-25.38,2.85-37.64,5.56L159.54,10.02 M150.17,112.95h18.18l-9.09-24.15L150.17,112.95 M159.55,4.82l-1.85,4.44
			L99.34,149.06l-1.48,3.55l3.76-0.83c12.25-2.71,24.82-4.56,37.36-5.52l1.26-0.1l0.45-1.18l2.48-6.46h32.06l2.53,6.44l0.46,1.17
			l1.25,0.09c12.77,0.94,25.55,2.81,38,5.56l3.76,0.83l-1.49-3.56L177.86,48.97L161.39,9.25L159.55,4.82L159.55,4.82z
			 M153.06,110.95l6.2-16.47l6.2,16.47H153.06L153.06,110.95z"/>
	</g>
	<g>
		<path class="st1" d="M215.69,148.81c-12.49-2.76-25.32-4.64-38.14-5.58l-0.63-0.05l-3.01-7.66h-33.43l-2.95,7.7l-0.63,0.05
			c-12.58,0.96-25.2,2.82-37.5,5.54l-1.88,0.42L157.55,5.42l17.4,41.94l42.63,101.87L215.69,148.81z M164.9,109.95l-7.65-20.31
			l-7.65,20.31H164.9z"/>
		<path class="st2" d="M157.54,8.02l16.48,39.72l41.88,100.1c-12.46-2.75-25.24-4.64-38.28-5.6l-3.03-7.71h-34.8l-2.97,7.75
			c-12.82,0.97-25.38,2.85-37.64,5.56L157.54,8.02 M148.17,110.95h18.18l-9.09-24.15L148.17,110.95 M157.55,2.82l-1.85,4.44
			L97.34,147.06l-1.48,3.55l3.76-0.83c12.25-2.71,24.82-4.56,37.36-5.52l1.26-0.1l0.45-1.18l2.48-6.46h32.06l2.53,6.44l0.46,1.17
			l1.25,0.09c12.77,0.94,25.55,2.81,38,5.56l3.76,0.83l-1.49-3.56L175.86,46.97L159.39,7.25L157.55,2.82L157.55,2.82z
			 M151.06,108.95l6.2-16.47l6.2,16.47H151.06L151.06,108.95z"/>
	</g>
</g>
<g>
	<g>
		<path class="st0" d="M189.08,39.52v-18.8h8.56c5.33,0,8.51,2.61,8.51,6.98c0,4.5-3.31,7.26-8.63,7.26h-0.82v4.56H189.08z
			 M197.2,28.96c0.93,0,1.4-0.29,1.4-0.85c0-0.32,0-0.9-1.38-0.9h-0.54v1.75H197.2z"/>
		<path class="st0" d="M197.64,21.72c4.46,0,7.51,1.99,7.51,5.98v0.05c0,4.06-3.1,6.22-7.63,6.22h-1.82v4.56h-5.62v-16.8H197.64
			 M195.69,29.96h1.51c1.44,0,2.4-0.65,2.4-1.85v-0.05c0-1.22-0.89-1.85-2.38-1.85h-1.54V29.96 M197.64,19.72h-7.56h-2v2v16.8v2h2
			h5.62h2v-2v-2.56c5.75-0.06,9.46-3.27,9.46-8.22C207.15,22.78,203.5,19.72,197.64,19.72L197.64,19.72z"/>
		<path class="st0" d="M216.91,39.88c-5.69,0-10.14-4.27-10.14-9.71c0-5.52,4.48-9.81,10.19-9.81c5.69,0,10.15,4.27,10.15,9.71
			C227.1,35.6,222.62,39.88,216.91,39.88z M216.91,27.33c-1.63,0-2.48,1.38-2.48,2.74c0,1.44,0.87,2.84,2.53,2.84
			c1.63,0,2.48-1.38,2.48-2.74C219.44,28.74,218.57,27.33,216.91,27.33z"/>
		<path class="st0" d="M216.96,21.36c5.18,0,9.15,3.84,9.15,8.71v0.05c0,4.87-4.01,8.76-9.19,8.76s-9.14-3.84-9.14-8.71v-0.05
			C207.76,25.25,211.77,21.36,216.96,21.36 M216.96,33.92c2.14,0,3.48-1.78,3.48-3.74v-0.05c0-1.99-1.37-3.79-3.53-3.79
			c-2.14,0-3.48,1.78-3.48,3.74v0.05C213.43,32.12,214.8,33.92,216.96,33.92 M216.96,19.36c-6.28,0-11.19,4.73-11.19,10.76
			c0,6.06,4.9,10.76,11.14,10.76c6.28,0,11.19-4.73,11.19-10.76C228.1,24.07,223.21,19.36,216.96,19.36L216.96,19.36z M216.96,31.92
			c-1.05,0-1.53-0.93-1.53-1.79c0-0.65,0.31-1.79,1.48-1.79c1.05,0,1.53,0.93,1.53,1.79C218.44,30.77,218.13,31.92,216.96,31.92
			L216.96,31.92z"/>
		<polygon class="st0" points="243.11,39.64 240.86,33.29 238.62,39.64 232.29,39.64 226.14,20.72 234.14,20.72 235.83,26.45 
			237.76,20.67 244.05,20.67 245.99,26.45 247.67,20.72 255.58,20.72 249.44,39.64 		"/>
		<path class="st0" d="M243.33,21.67l2.71,8.11l2.38-8.07h5.78l-5.5,16.92h-4.9l-2.95-8.35l-2.95,8.35h-4.9l-5.5-16.92h5.88
			l2.38,8.07l2.71-8.11H243.33 M244.77,19.67h-1.44h-4.85h-1.44l-0.46,1.37l-0.7,2.08l-0.58-1.96l-0.42-1.43h-1.5h-5.88h-2.75
			l0.85,2.62l5.5,16.92l0.45,1.38h1.45h4.9h1.41l0.47-1.33l1.07-3.02l1.07,3.02l0.47,1.33h1.41h4.9h1.45l0.45-1.38l5.5-16.92
			l0.85-2.62h-2.75h-5.78h-1.5l-0.42,1.43l-0.58,1.96l-0.7-2.08L244.77,19.67L244.77,19.67z"/>
		<polygon class="st0" points="255.96,39.52 255.96,20.72 272.29,20.72 272.29,27.33 271.69,27.33 271.69,32.92 272.41,32.92 
			272.41,39.52 		"/>
		<path class="st0" d="M271.29,21.72v4.61h-8.81v1.7h8.21v4.06h-8.21v1.82h8.93v4.61h-14.45v-16.8H271.29 M273.29,19.72h-2h-14.33
			h-2v2v16.8v2h2h14.45h2v-2v-4.61v-2h-0.72v-3.58h0.6v-2v-4.61V19.72L273.29,19.72z"/>
		<path class="st0" d="M284.17,39.52l-2.83-4.29v4.29h-7.62v-18.8h9.21c3.01,0,5.29,0.74,6.76,2.21c1.23,1.23,1.83,2.77,1.83,4.69
			c0,2.34-1.01,4.25-2.88,5.51l4.37,6.39H284.17z M282.77,28.71c0.77,0,1.16-0.21,1.16-0.63c0-0.23,0-0.66-1.14-0.66h-1.45v1.29
			H282.77z"/>
		<path class="st0" d="M282.93,21.72c2.98,0,4.87,0.74,6.05,1.92c1.01,1.01,1.54,2.26,1.54,3.98v0.05c0,2.45-1.27,4.15-3.31,5.14
			l3.91,5.71h-6.41l-3.17-4.8h-1.2v4.8h-5.62v-16.8H282.93 M280.34,29.71h2.42c1.34,0,2.16-0.6,2.16-1.63v-0.05
			c0-1.08-0.84-1.61-2.14-1.61h-2.45V29.71 M282.93,19.72h-8.21h-2v2v16.8v2h2h5.62h2v-1.96l0.7,1.06l0.59,0.9h1.08h6.41h3.79
			l-2.14-3.13L290,33.36c1.64-1.42,2.51-3.38,2.51-5.68c0-2.25-0.69-4.02-2.12-5.45C288.73,20.56,286.22,19.72,282.93,19.72
			L282.93,19.72z"/>
		<polygon class="st0" points="292.68,39.52 292.68,20.72 309.01,20.72 309.01,27.33 308.41,27.33 308.41,32.92 309.13,32.92 
			309.13,39.52 		"/>
		<path class="st0" d="M308.01,21.72v4.61h-8.81v1.7h8.21v4.06h-8.21v1.82h8.93v4.61h-14.45v-16.8H308.01 M310.01,19.72h-2h-14.33
			h-2v2v16.8v2h2h14.45h2v-2v-4.61v-2h-0.72v-3.58h0.6v-2v-4.61V19.72L310.01,19.72z"/>
		<path class="st0" d="M310.44,39.52v-18.8h7.43c6.89,0,11.01,3.46,11.01,9.26c0,5.91-4.29,9.54-11.2,9.54H310.44z M318.06,32.63
			c3.16-0.02,3.16-1.81,3.16-2.48c0-0.72,0-2.5-3.16-2.53V32.63z"/>
		<path class="st0" d="M317.88,21.72c6.67,0,10.01,3.29,10.01,8.26v0.05c0,4.97-3.41,8.5-10.2,8.5h-6.24v-16.8H317.88 M317.06,33.63
			H318c2.57,0,4.22-1.06,4.22-3.48V30.1c0-2.42-1.66-3.48-4.22-3.48h-0.94V33.63 M317.88,19.72h-6.43h-2v2v16.8v2h2h6.24
			c7.53,0,12.2-4.02,12.2-10.5C329.89,23.65,325.28,19.72,317.88,19.72L317.88,19.72z M319.06,31.54v-2.83
			c1.16,0.24,1.16,0.89,1.16,1.39C320.22,30.64,320.22,31.3,319.06,31.54L319.06,31.54z"/>
		<path class="st0" d="M337.08,39.52v-18.8h10.41c2.51,0,4.25,0.57,5.48,1.81c0.87,0.87,1.33,2.02,1.33,3.32
			c0,1.57-0.6,2.86-1.73,3.78c1.52,0.94,2.28,2.34,2.28,4.19c0,3.48-2.93,5.7-7.46,5.7H337.08z M346.37,33.28
			c0.6,0,0.82-0.15,0.84-0.19l0-0.12c-0.02-0.04-0.24-0.18-0.82-0.18h-1.83v0.5H346.37z M346.01,27.32c0.62,0,0.79-0.14,0.79-0.14
			l-0.02-0.1c0,0,0,0,0,0c-0.02,0-0.22-0.11-0.8-0.11h-1.42v0.35H346.01z"/>
		<path class="st0" d="M347.49,21.72c2.33,0,3.79,0.53,4.78,1.51c0.6,0.6,1.03,1.46,1.03,2.62v0.05c0,1.99-1.2,3.22-3,3.84
			c2.16,0.62,3.55,1.78,3.55,4.08v0.05c0,2.69-2.21,4.66-6.46,4.66h-9.31v-16.8H347.49 M343.56,28.32h2.45
			c1.2,0,1.78-0.41,1.78-1.15v-0.05c0-0.74-0.6-1.15-1.8-1.15h-2.42V28.32 M343.56,34.28h2.81c1.22,0,1.85-0.5,1.85-1.22V33
			c0-0.72-0.6-1.22-1.82-1.22h-2.83V34.28 M347.49,19.72h-9.41h-2v2v16.8v2h2h9.31c6.24,0,8.46-3.59,8.46-6.66
			c0-1.39-0.37-3.04-1.78-4.34c0.8-1,1.23-2.23,1.23-3.63c0-1.63-0.56-3.02-1.62-4.08C352.25,20.39,350.29,19.72,347.49,19.72
			L347.49,19.72z"/>
		<polygon class="st0" points="360.15,39.52 360.15,32.84 353.07,20.72 361.71,20.72 363.99,25.09 366.28,20.72 374.85,20.72 
			367.77,32.77 367.77,39.52 		"/>
		<path class="st0" d="M373.1,21.72l-6.34,10.78v6.02h-5.62v-5.95l-6.34-10.85h6.29l2.88,5.52l2.9-5.52H373.1 M376.6,19.72h-3.5
			h-6.22h-1.21l-0.56,1.07l-1.13,2.14l-1.11-2.14l-0.56-1.07h-1.21h-6.29h-3.48l1.76,3.01l6.06,10.38v5.41v2h2h5.62h2v-2v-5.48
			l6.06-10.31L376.6,19.72L376.6,19.72z"/>
	</g>
	<g>
		<g>
			<g>
				<path class="st1" d="M187.08,37.52v-18.8h8.56c5.33,0,8.51,2.61,8.51,6.98c0,4.5-3.31,7.26-8.63,7.26h-0.82v4.56H187.08z
					 M195.2,26.96c0.93,0,1.4-0.29,1.4-0.85c0-0.32,0-0.9-1.38-0.9h-0.54v1.75H195.2z"/>
				<path class="st2" d="M195.64,19.72c4.46,0,7.51,1.99,7.51,5.98v0.05c0,4.06-3.1,6.22-7.63,6.22h-1.82v4.56h-5.62v-16.8H195.64
					 M193.69,27.96h1.51c1.44,0,2.4-0.65,2.4-1.85v-0.05c0-1.22-0.89-1.85-2.38-1.85h-1.54V27.96 M195.64,17.72h-7.56h-2v2v16.8v2h2
					h5.62h2v-2v-2.56c5.75-0.06,9.46-3.27,9.46-8.22C205.15,20.78,201.5,17.72,195.64,17.72L195.64,17.72z"/>
			</g>
			<g>
				<path class="st1" d="M214.91,37.88c-5.69,0-10.14-4.27-10.14-9.71c0-5.52,4.48-9.81,10.19-9.81c5.69,0,10.15,4.27,10.15,9.71
					C225.1,33.6,220.62,37.88,214.91,37.88z M214.91,25.33c-1.63,0-2.48,1.38-2.48,2.74c0,1.44,0.87,2.84,2.53,2.84
					c1.63,0,2.48-1.38,2.48-2.74C217.44,26.74,216.57,25.33,214.91,25.33z"/>
				<path class="st2" d="M214.96,19.36c5.18,0,9.15,3.84,9.15,8.71v0.05c0,4.87-4.01,8.76-9.19,8.76s-9.14-3.84-9.14-8.71v-0.05
					C205.76,23.25,209.77,19.36,214.96,19.36 M214.96,31.92c2.14,0,3.48-1.78,3.48-3.74v-0.05c0-1.99-1.37-3.79-3.53-3.79
					c-2.14,0-3.48,1.78-3.48,3.74v0.05C211.43,30.12,212.8,31.92,214.96,31.92 M214.96,17.36c-6.28,0-11.19,4.73-11.19,10.76
					c0,6.06,4.9,10.76,11.14,10.76c6.28,0,11.19-4.73,11.19-10.76C226.1,22.07,221.21,17.36,214.96,17.36L214.96,17.36z
					 M214.96,29.92c-1.05,0-1.53-0.93-1.53-1.79c0-0.65,0.31-1.79,1.48-1.79c1.05,0,1.53,0.93,1.53,1.79
					C216.44,28.77,216.13,29.92,214.96,29.92L214.96,29.92z"/>
			</g>
			<g>
				<polygon class="st1" points="241.11,37.64 238.86,31.29 236.62,37.64 230.29,37.64 224.14,18.72 232.14,18.72 233.83,24.45 
					235.76,18.67 242.05,18.67 243.99,24.45 245.67,18.72 253.58,18.72 247.44,37.64 				"/>
				<path class="st2" d="M241.33,19.67l2.71,8.11l2.38-8.07h5.78l-5.5,16.92h-4.9l-2.95-8.35l-2.95,8.35h-4.9l-5.5-16.92h5.88
					l2.38,8.07l2.71-8.11H241.33 M242.77,17.67h-1.44h-4.85h-1.44l-0.46,1.37l-0.7,2.08l-0.58-1.96l-0.42-1.43h-1.5h-5.88h-2.75
					l0.85,2.62l5.5,16.92l0.45,1.38h1.45h4.9h1.41l0.47-1.33l1.07-3.02l1.07,3.02l0.47,1.33h1.41h4.9h1.45l0.45-1.38l5.5-16.92
					l0.85-2.62h-2.75h-5.78h-1.5l-0.42,1.43l-0.58,1.96l-0.7-2.08L242.77,17.67L242.77,17.67z"/>
			</g>
			<g>
				<polygon class="st1" points="253.96,37.52 253.96,18.72 270.29,18.72 270.29,25.33 269.69,25.33 269.69,30.92 270.41,30.92 
					270.41,37.52 				"/>
				<path class="st2" d="M269.29,19.72v4.61h-8.81v1.7h8.21v4.06h-8.21v1.82h8.93v4.61h-14.45v-16.8H269.29 M271.29,17.72h-2h-14.33
					h-2v2v16.8v2h2h14.45h2v-2v-4.61v-2h-0.72v-3.58h0.6v-2v-4.61V17.72L271.29,17.72z"/>
			</g>
			<g>
				<path class="st1" d="M282.17,37.52l-2.83-4.29v4.29h-7.62v-18.8h9.21c3.01,0,5.29,0.74,6.76,2.21c1.23,1.23,1.83,2.77,1.83,4.69
					c0,2.34-1.01,4.25-2.88,5.51l4.37,6.39H282.17z M280.77,26.71c0.77,0,1.16-0.21,1.16-0.63c0-0.23,0-0.66-1.14-0.66h-1.45v1.29
					H280.77z"/>
				<path class="st2" d="M280.93,19.72c2.98,0,4.87,0.74,6.05,1.92c1.01,1.01,1.54,2.26,1.54,3.98v0.05c0,2.45-1.27,4.15-3.31,5.14
					l3.91,5.71h-6.41l-3.17-4.8h-1.2v4.8h-5.62v-16.8H280.93 M278.34,27.71h2.42c1.34,0,2.16-0.6,2.16-1.63v-0.05
					c0-1.08-0.84-1.61-2.14-1.61h-2.45V27.71 M280.93,17.72h-8.21h-2v2v16.8v2h2h5.62h2v-1.96l0.7,1.06l0.59,0.9h1.08h6.41h3.79
					l-2.14-3.13L288,31.36c1.64-1.42,2.51-3.38,2.51-5.68c0-2.25-0.69-4.02-2.12-5.45C286.73,18.56,284.22,17.72,280.93,17.72
					L280.93,17.72z"/>
			</g>
			<g>
				<polygon class="st1" points="290.68,37.52 290.68,18.72 307.01,18.72 307.01,25.33 306.41,25.33 306.41,30.92 307.13,30.92 
					307.13,37.52 				"/>
				<path class="st2" d="M306.01,19.72v4.61h-8.81v1.7h8.21v4.06h-8.21v1.82h8.93v4.61h-14.45v-16.8H306.01 M308.01,17.72h-2h-14.33
					h-2v2v16.8v2h2h14.45h2v-2v-4.61v-2h-0.72v-3.58h0.6v-2v-4.61V17.72L308.01,17.72z"/>
			</g>
			<g>
				<path class="st1" d="M308.44,37.52v-18.8h7.43c6.89,0,11.01,3.46,11.01,9.26c0,5.91-4.29,9.54-11.2,9.54H308.44z M316.06,30.63
					c3.16-0.02,3.16-1.81,3.16-2.48c0-0.72,0-2.5-3.16-2.53V30.63z"/>
				<path class="st2" d="M315.88,19.72c6.67,0,10.01,3.29,10.01,8.26v0.05c0,4.97-3.41,8.5-10.2,8.5h-6.24v-16.8H315.88
					 M315.06,31.63H316c2.57,0,4.22-1.06,4.22-3.48V28.1c0-2.42-1.66-3.48-4.22-3.48h-0.94V31.63 M315.88,17.72h-6.43h-2v2v16.8v2h2
					h6.24c7.53,0,12.2-4.02,12.2-10.5C327.89,21.65,323.28,17.72,315.88,17.72L315.88,17.72z M317.06,29.54v-2.83
					c1.16,0.24,1.16,0.89,1.16,1.39C318.22,28.64,318.22,29.3,317.06,29.54L317.06,29.54z"/>
			</g>
			<g>
				<path class="st1" d="M335.08,37.52v-18.8h10.41c2.51,0,4.25,0.57,5.48,1.81c0.87,0.87,1.33,2.02,1.33,3.32
					c0,1.57-0.6,2.86-1.73,3.78c1.52,0.94,2.28,2.34,2.28,4.19c0,3.48-2.93,5.7-7.46,5.7H335.08z M344.37,31.28
					c0.6,0,0.82-0.15,0.84-0.19l0-0.12c-0.02-0.04-0.24-0.18-0.82-0.18h-1.83v0.5H344.37z M344.01,25.32c0.62,0,0.79-0.14,0.79-0.14
					l-0.02-0.1c0,0,0,0,0,0c-0.02,0-0.22-0.11-0.8-0.11h-1.42v0.35H344.01z"/>
				<path class="st2" d="M345.49,19.72c2.33,0,3.79,0.53,4.78,1.51c0.6,0.6,1.03,1.46,1.03,2.62v0.05c0,1.99-1.2,3.22-3,3.84
					c2.16,0.62,3.55,1.78,3.55,4.08v0.05c0,2.69-2.21,4.66-6.46,4.66h-9.31v-16.8H345.49 M341.56,26.32h2.45
					c1.2,0,1.78-0.41,1.78-1.15v-0.05c0-0.74-0.6-1.15-1.8-1.15h-2.42V26.32 M341.56,32.28h2.81c1.22,0,1.85-0.5,1.85-1.22V31
					c0-0.72-0.6-1.22-1.82-1.22h-2.83V32.28 M345.49,17.72h-9.41h-2v2v16.8v2h2h9.31c6.24,0,8.46-3.59,8.46-6.66
					c0-1.39-0.37-3.04-1.78-4.34c0.8-1,1.23-2.23,1.23-3.63c0-1.63-0.56-3.02-1.62-4.08C350.25,18.39,348.29,17.72,345.49,17.72
					L345.49,17.72z"/>
			</g>
			<g>
				<polygon class="st1" points="358.15,37.52 358.15,30.84 351.07,18.72 359.71,18.72 361.99,23.09 364.28,18.72 372.85,18.72 
					365.77,30.77 365.77,37.52 				"/>
				<path class="st2" d="M371.1,19.72l-6.34,10.78v6.02h-5.62v-5.95l-6.34-10.85h6.29l2.88,5.52l2.9-5.52H371.1 M374.6,17.72h-3.5
					h-6.22h-1.21l-0.56,1.07l-1.13,2.14l-1.11-2.14l-0.56-1.07h-1.21h-6.29h-3.48l1.76,3.01l6.06,10.38v5.41v2h2h5.62h2v-2v-5.48
					l6.06-10.31L374.6,17.72L374.6,17.72z"/>
			</g>
		</g>
	</g>
</g>
</svg>
